<svg xmlns="http://www.w3.org/2000/svg" viewBox="0 0 1024 1024">
<g transform="translate(0,1024) scale(0.08896,-0.08896)" fill="#000000" stroke="none">
<path d="M970 11509 c-155 -20 -343 -93 -482 -187 -141 -95 -289 -266 -370
-427 -42 -83 -85 -214 -102 -314 -15 -86 -16 -512 -16 -4816 0 -4183 2 -4733
15 -4811 21 -123 50 -214 101 -317 62 -125 116 -200 218 -303 159 -160 310
-244 556 -311 62 -16 315 -17 4820 -20 5207 -4 4839 -8 5024 52 216 69 419
213 557 394 57 75 151 257 175 340 51 175 48 -205 51 4936 4 5298 10 4839 -63
5045 -129 363 -416 619 -814 727 -62 16 -321 17 -4835 19 -2623 1 -4799 -2
-4835 -7z m6540 -947 c0 -9 -6437 -6435 -6451 -6440 -5 -2 -9 307 -9 743 0
624 3 765 16 852 28 194 102 373 215 523 34 44 882 899 2091 2105 1894 1892
2039 2034 2115 2078 141 82 244 119 373 137 75 10 1650 12 1650 2z m2664 -35
c132 -63 223 -173 274 -331 16 -47 17 -371 17 -4351 l0 -4300 -21 -67 c-30
-95 -78 -169 -160 -247 -51 -49 -89 -75 -140 -97 l-69 -29 -2370 -3 c-1303 -1
-2637 -1 -2964 0 l-594 3 657 657 657 658 1612 2 1612 3 69 23 c203 69 351
171 461 318 63 83 133 224 161 324 18 62 19 171 22 2725 l2 2660 -1995 -1995
c-1097 -1097 -2757 -2757 -3688 -3688 l-1692 -1693 -291 3 -291 3 -85 43
c-146 72 -257 212 -292 369 -13 59 -16 138 -16 435 l0 363 4128 4128 4127
4128 395 -3 395 -3 79 -38z m-1544 -5909 c0 -917 -1 -966 -19 -1025 -49 -161
-169 -290 -335 -362 l-61 -26 -978 -3 c-674 -2 -978 1 -975 8 4 12 2350 2366
2361 2368 4 1 7 -431 7 -960z"/>
</g>
</svg>
